<?xml version="1.0" encoding="UTF-8" standalone="no"?>
<!DOCTYPE svg PUBLIC "-//W3C//DTD SVG 1.1//EN" "http://www.w3.org/Graphics/SVG/1.1/DTD/svg11.dtd">
<svg width="100%" height="100%" viewBox="0 0 512 512" version="1.1" xmlns="http://www.w3.org/2000/svg" xmlns:xlink="http://www.w3.org/1999/xlink" xml:space="preserve" xmlns:serif="http://www.serif.com/" style="fill-rule:evenodd;clip-rule:evenodd;stroke-linecap:square;stroke-miterlimit:1.5;">
    <g transform="matrix(0.722727,0,0,1,64.9545,0)">
        <path d="M90,472L310,472" style="fill:none;stroke:white;stroke-width:68.77px;"/>
    </g>
    <g transform="matrix(0.722727,0,0,1,64.9545,-200)">
        <path d="M90,472L310,472" style="fill:none;stroke:white;stroke-width:68.77px;"/>
    </g>
    <g transform="matrix(0.422727,0,0,1,340.955,-200)">
        <path d="M90,472L310,472" style="fill:none;stroke:white;stroke-width:78.16px;"/>
    </g>
    <g transform="matrix(1,0,0,0.395967,-22,-11.8717)">
        <path d="M62,1222L62,131" style="fill:none;stroke:rgb(71,116,255);stroke-width:65.74px;"/>
    </g>
    <g transform="matrix(1,0,0,1,-10,-1.42109e-14)">
        <path d="M482,40L389,40L389,472" style="fill:none;stroke:white;stroke-width:60px;"/>
    </g>
    <path d="M40,472L40,40L289,40" style="fill:none;stroke:white;stroke-width:60px;"/>
    <g transform="matrix(1.36364,0,0,1.33333,-151.364,-77.3333)">
        <rect x="199" y="142" width="44" height="45" style="fill:white;"/>
    </g>
    <g transform="matrix(1.36364,0,0,1.33333,-32.3636,-77.3333)">
        <rect x="199" y="142" width="44" height="45" style="fill:white;"/>
    </g>
    <g transform="matrix(0.722727,0,0,1,64.9545,-100)">
        <path d="M90,472L310,472" style="fill:none;stroke:white;stroke-width:68.77px;"/>
    </g>
</svg>
